<svg xmlns="http://www.w3.org/2000/svg" width="256" height="256" viewBox="0 0 100 100"><path fill="#7f7f7f" d="M11.84 55.46L7.07 55.46L7.07 24.19L11.84 24.19L11.84 55.46ZM16.61 55.46L15.02 55.46L15.02 24.19L16.61 24.19L16.61 55.46ZM21.38 55.46L18.20 55.46L18.20 24.19L21.38 24.19L21.38 55.46ZM15.76 60.02L15.76 60.02Q16.88 60.02 17.78 60.65L17.78 60.65Q18.62 61.34 19.05 62.51L19.05 62.51Q19.52 63.67 19.52 65.21L19.52 65.21Q19.52 68.81 18.46 70.67L18.46 70.67Q17.35 72.53 15.39 72.58L15.39 72.58Q13.59 72.58 12.42 71.47L12.42 71.47L13.43 70.30L13.54 70.41Q13.54 70.62 13.64 70.78L13.64 70.78Q13.70 70.88 13.96 71.04L13.96 71.04Q14.49 71.36 15.29 71.36L15.29 71.36Q16.61 71.36 17.35 70.09L17.35 70.09Q18.04 68.76 18.20 66.85L18.20 66.85Q17.72 67.28 17.14 67.49L17.14 67.49Q16.56 67.70 15.81 67.70L15.81 67.70Q14.81 67.70 13.96 67.23L13.96 67.23Q13.16 66.75 12.69 65.95L12.69 65.95Q12.21 65.11 12.21 63.99L12.21 63.99Q12.21 62.88 12.69 61.98L12.69 61.98Q13.16 61.08 13.96 60.55L13.96 60.55Q14.81 60.02 15.76 60.02ZM15.81 66.54L15.81 66.54Q16.66 66.54 17.19 66.27L17.19 66.27Q17.78 66.06 18.20 65.48L18.20 65.48Q18.15 63.30 17.56 62.24L17.56 62.24Q16.98 61.24 15.81 61.24L15.81 61.24Q14.81 61.24 14.17 61.98L14.17 61.98Q13.59 62.72 13.59 63.99L13.59 63.99Q13.59 65.16 14.22 65.85L14.22 65.85Q14.86 66.54 15.81 66.54ZM29.33 55.46L24.56 55.46L24.56 24.19L29.33 24.19L29.33 55.46ZM34.10 55.46L32.51 55.46L32.51 24.19L34.10 24.19L34.10 55.46ZM38.87 55.46L35.69 55.46L35.69 24.19L38.87 24.19L38.87 55.46ZM33.25 60.02L33.25 60.02Q34.36 60.02 35.27 60.65L35.27 60.65Q36.11 61.34 36.54 62.51L36.54 62.51Q37.02 63.67 37.02 65.21L37.02 65.21Q37.02 68.81 35.95 70.67L35.95 70.67Q34.84 72.53 32.88 72.58L32.88 72.58Q31.08 72.58 29.91 71.47L29.91 71.47L30.92 70.30L31.03 70.41Q31.03 70.62 31.13 70.78L31.13 70.78Q31.18 70.88 31.45 71.04L31.45 71.04Q31.98 71.36 32.77 71.36L32.77 71.36Q34.10 71.36 34.84 70.09L34.84 70.09Q35.53 68.76 35.69 66.85L35.69 66.85Q35.21 67.28 34.63 67.49L34.63 67.49Q34.05 67.70 33.30 67.70L33.30 67.70Q32.30 67.70 31.45 67.23L31.45 67.23Q30.65 66.75 30.18 65.95L30.18 65.95Q29.70 65.11 29.70 63.99L29.70 63.99Q29.70 62.88 30.18 61.98L30.18 61.98Q30.65 61.08 31.45 60.55L31.45 60.55Q32.30 60.02 33.25 60.02ZM33.30 66.54L33.30 66.54Q34.15 66.54 34.68 66.27L34.68 66.27Q35.27 66.06 35.69 65.48L35.69 65.48Q35.64 63.30 35.05 62.24L35.05 62.24Q34.47 61.24 33.30 61.24L33.30 61.24Q32.30 61.24 31.66 61.98L31.66 61.98Q31.08 62.72 31.08 63.99L31.08 63.99Q31.08 65.16 31.71 65.85L31.71 65.85Q32.35 66.54 33.30 66.54ZM43.64 55.46L42.05 55.46L42.05 24.19L43.64 24.19L43.64 55.46ZM53.18 55.46L50 55.46L50 24.19L53.18 24.19L53.18 55.46ZM57.95 55.46L56.36 55.46L56.36 24.19L57.95 24.19L57.95 55.46ZM49.68 75.81L49.68 75.81Q48.83 75.81 48.09 75.49L48.09 75.49Q47.35 75.18 46.82 74.54L46.82 74.54L47.61 73.48L47.72 73.32L47.83 73.37Q47.83 73.43 47.88 73.53L47.88 73.53Q47.88 73.69 47.99 73.85L47.99 73.85Q48.04 73.96 48.20 74.06L48.20 74.06Q48.83 74.59 49.68 74.59L49.68 74.59Q50.58 74.59 51.17 73.96L51.17 73.96Q51.70 73.32 51.70 72.00L51.70 72.00L51.70 64.52L48.36 64.52L48.36 63.36L53.13 63.36L53.13 71.94Q53.13 73.90 52.17 74.86L52.17 74.86Q51.22 75.81 49.68 75.81ZM52.33 61.45L52.33 61.45Q51.91 61.45 51.59 61.18L51.59 61.18Q51.32 60.87 51.32 60.44L51.32 60.44Q51.32 60.02 51.59 59.75L51.59 59.75Q51.85 59.43 52.33 59.43L52.33 59.43Q52.70 59.43 53.02 59.75L53.02 59.75Q53.34 60.07 53.34 60.44L53.34 60.44Q53.34 60.87 53.02 61.18L53.02 61.18Q52.70 61.45 52.33 61.45ZM61.13 55.46L59.54 55.46L59.54 24.19L61.13 24.19L61.13 55.46ZM70.67 55.46L67.49 55.46L67.49 24.19L70.67 24.19L70.67 55.46ZM73.85 55.46L72.26 55.46L72.26 24.19L73.85 24.19L73.85 55.46ZM65.32 72.37L65.32 71.20L67.65 71.20L67.65 64.52L65.42 64.52L65.42 63.36L69.03 63.36L69.03 71.20L71.15 71.20L71.15 72.37L65.32 72.37ZM68.28 61.45L68.28 61.45Q67.86 61.45 67.54 61.18L67.54 61.18Q67.28 60.87 67.28 60.44L67.28 60.44Q67.28 60.02 67.54 59.75L67.54 59.75Q67.81 59.43 68.28 59.43L68.28 59.43Q68.66 59.43 68.97 59.75L68.97 59.75Q69.29 60.07 69.29 60.44L69.29 60.44Q69.29 60.87 68.97 61.18L68.97 61.18Q68.66 61.45 68.28 61.45ZM80.21 55.46L77.03 55.46L77.03 24.19L80.21 24.19L80.21 55.46ZM88.16 55.46L86.57 55.46L86.57 24.19L88.16 24.19L88.16 55.46ZM92.93 55.46L91.34 55.46L91.34 24.19L92.93 24.19L92.93 55.46ZM88.48 72.42L84.77 67.86L83.60 68.97L83.60 72.37L82.17 72.37L82.17 59.28L83.76 59.28L83.76 59.38Q83.65 59.54 83.60 59.65L83.60 59.65Q83.60 59.81 83.60 60.12L83.60 60.12L83.60 67.49L88.11 63.30Q88.58 63.41 89.17 63.41L89.17 63.41L89.64 63.41L85.88 67.01L90.28 72.37L88.48 72.42Z"></path></svg>